TITLE:   170919_DPN_101_VFX_PULLS
FCM:NON-DROP FRAME

000001  A002C002_170905_R1A9             V     C        16:57:04:23 16:57:07:01 01:00:00:00 01:00:02:02
*EFF2_SBLEND
*FROM CLIP NAME:  RV6-2A
* MOS
*LOC: 01:00:00:20 YELLOW  DPN_101_06R_010
*ASC_SOP (1.0222 1.0399 1.0473)(-0.0792 -0.0792 -0.0784)(0.8853 0.8765 0.8607)
*ASC_SAT 0.7728

000002  B002C009_170309_R71I             V     C        19:41:40:15 19:41:42:15 01:00:02:02 01:00:04:02
*FROM CLIP NAME:  6A-2B
*LOC: 01:00:03:00 YELLOW  DPN_101_06R_020
*ASC_SOP (0.992000 0.992000 0.992000)(0.000000 0.000000 0.000000)(1.012000 1.012000 1.012000)
*ASC_SAT 1.000000

000003  C022C018_170329_R591             V     C        03:00:29:19 03:00:35:18 01:00:04:02 01:00:10:01
*FROM CLIP NAME:  V8A-1C
*LOC: 01:00:06:09 YELLOW  DPN_101_08R_010
*ASC_SOP (1.013333 1.013333 1.013333)(-0.013333 -0.013333 -0.013333)(0.964255 1.009282 1.039409)
*ASC_SAT 1.000000

000004  C022C018_170329_R591             V     C        03:09:06:23 03:09:07:00 01:00:10:01 01:00:12:06M2      C022C018_170329_R591                     -024.0 03:09:06:23
*MOTION EFFECT AT SEQUENCE TC 01:00:10:01.
*FROM CLIP NAME:  V8A-1C (-24.00 FPS)
*LOC: 01:00:10:20 YELLOW  DPN_101_08R_020
*ASC_SOP (1.013333 1.013333 1.013333)(-0.013333 -0.013333 -0.013333)(0.964255 1.009282 1.039409)
*ASC_SAT 1.000000

000005  C022C018_170329_R591             V     C        03:06:21:06 03:06:23:10 01:00:12:06 01:00:14:10
*FROM CLIP NAME:  V8A-1C
*LOC: 01:00:12:22 YELLOW  DPN_101_08R_030
*ASC_SOP (1.013333 1.013333 1.013333)(-0.013333 -0.013333 -0.013333)(0.964255 1.009282 1.039409)
*ASC_SAT 1.000000

000006  C022C018_170329_R591             V     C        03:09:02:23 03:09:03:00 01:00:14:10 01:00:15:23M2      C022C018_170329_R591                     -024.0 03:09:02:23
*MOTION EFFECT AT SEQUENCE TC 01:00:14:10.
*FROM CLIP NAME:  V8A-1C (-24.00 FPS)
*LOC: 01:00:14:20 YELLOW  DPN_101_08R_040
*ASC_SOP (1.013333 1.013333 1.013333)(-0.013333 -0.013333 -0.013333)(0.964255 1.009282 1.039409)
*ASC_SAT 1.000000

000007  BL                               V     C        00:00:00:00 00:00:01:06 01:00:15:23 01:00:17:05
*EFF2_SBLEND

000008  C022C018_170329_R591             V     C        03:08:58:17 03:08:58:18 01:00:17:05 01:00:18:08M2      C022C018_170329_R591                     -024.0 03:08:58:17
*MOTION EFFECT AT SEQUENCE TC 01:00:17:05.
*FROM CLIP NAME:  V8A-1C (-24.00 FPS)
*LOC: 01:00:17:11 YELLOW  DPN_101_08R_060
*ASC_SOP (1.013333 1.013333 1.013333)(-0.013333 -0.013333 -0.013333)(0.964255 1.009282 1.039409)
*ASC_SAT 1.000000

000009  BL                               V     C        00:00:00:00 00:00:00:16 01:00:18:08 01:00:19:00
*EFF2_SBLEND

000010  C022C018_170329_R591             V     C        03:08:56:04 03:08:56:05 01:00:19:00 01:00:19:15M2      C022C018_170329_R591                     -024.0 03:08:56:04*MOTION EFFECT AT SEQUENCE TC 01:00:19:00.
*FROM CLIP NAME:  V8A-1C (-24.00 FPS)
*LOC: 01:00:19:04 YELLOW  DPN_101_08R_080
*ASC_SOP (1.013333 1.013333 1.013333)(-0.013333 -0.013333 -0.013333)(0.964255 1.009282 1.039409)
*ASC_SAT 1.000000

000011  C022C018_170329_R591             V     C        03:09:01:17 03:09:02:03 01:00:19:15 01:00:20:01
*FROM CLIP NAME:  V8A-1C
*LOC: 01:00:19:19 YELLOW  DPN_101_08R_090
*ASC_SOP (1.013333 1.013333 1.013333)(-0.013333 -0.013333 -0.013333)(0.964255 1.009282 1.039409)
*ASC_SAT 1.000000

000012  C022C018_170329_R591             V     C        03:09:02:03 03:09:02:03 01:00:20:01 01:00:20:01000012  C022C018_170329_R591             V     D    004 03:09:01:17 03:09:02:13 01:00:20:01 01:00:20:21
*EFF2_BLEND_DISSOLVE
*FROM CLIP NAME:  V8A-1C
*TO CLIP NAME:  V8A-1C
*LOC: 01:00:20:05 YELLOW  DPN_101_08R_090
*LOC: 01:00:20:09 YELLOW  DPN_101_08R_090
*ASC_SOP (1.013333 1.013333 1.013333)(-0.013333 -0.013333 -0.013333)(0.964255 1.009282 1.039409)
*ASC_SAT 1.000000

000013  101_011_003_COMP_V03.MOV         V     C        06:04:26:00 06:04:26:22 01:00:20:21 01:00:21:19
*FROM CLIP NAME:  101_011_003_COMP_V03.MOV
*LOC: 01:00:21:00 YELLOW  DPN_101_11R_010

000014  BL                               V     C        00:00:00:00 00:00:00:15 01:00:21:19 01:00:22:10

000015  A001C006_170905_R1A9             V     C        11:26:13:05 11:26:16:12 01:00:22:10 01:00:25:17
*EFF2_RGB_COLOR_CORRECTION
*FROM CLIP NAME:  RV61-5A*
*LOC: 01:00:23:10 YELLOW  DPN_101_61R_010
*ASC_SOP (1.1230 1.2110 1.3004)(-0.2318 -0.2461 -0.2494)(0.9353 0.9536 0.9631)
*ASC_SAT 0.7728

000016  B001C005_170905_B1QT             V     C        11:26:16:04 11:26:18:08 01:00:25:17 01:00:27:21
*EFF2_RGB_COLOR_CORRECTION
*FROM CLIP NAME:  RV61-5B*
*LOC: 01:00:26:08 YELLOW  DPN_101_61R_020
*ASC_SOP (1.1014 1.1706 1.2453)(-0.3169 -0.3169 -0.3169)(0.6929 0.7103 0.6923)
*ASC_SAT 0.7728

000017  A043C008_170331_R71S             V     C        05:32:01:20 05:32:14:07 01:00:27:21 01:00:40:08
*FROM CLIP NAME:  V8-7A MOS
*ASC_SOP (1.0000 1.0000 1.0000)(0.0000 0.0000 0.0000)(1.0000 1.0000 1.0000)
*ASC_SAT 1.0000
>>> SOURCE A001C006_170905_R1A9             A001C006_170905_ 060a2b340101010501010f10-13-00-00-00-{571d0d08-92e2-0080-445e000000000000%}>>> SOURCE A002C002_170905_R1A9             A002C002_170905_ 060a2b340101010501010f10-13-00-00-00-{dd158a18-92e2-0080-e4fa000000000000%}>>> SOURCE A043C008_170331_R71S             A043C008_170331_ 060e2b340101010101010f00-13-00-00-00-{c15c7b42-f038-b4f9-060e2b347f7f2a80%}>>> SOURCE B001C005_170905_B1QT             B001C005_170905_ 060a2b340101010501010f10-13-00-00-00-{61d90f0c-92e2-0080-a92a000000000000%}>>> SOURCE B002C009_170309_R71I             B002C009_170309_ 060e2b340101010101010f00-13-00-00-00-{c1d4768b-f038-5ee1-060e2b347f7f2a80%}>>> SOURCE C022C018_170329_R591             C022C018_170329_ 060e2b340101010101010f00-13-00-00-00-{596cd750-f038-3546-060e2b347f7f2a80%}>>> SOURCE 101_011_003_COMP_V03.MOV         101_011_003_COMP 060a2b340101010101010f00-13-00-00-00-{59060d3e-37dc-0007-060e2b347f7f2a80%}
